# xmcd
#
# Track frame offsets:
#	150
#	20325
#	33021
#	46664
#	63642
#	80839
#	101416
#	118764
#	138995
#	158199
#	173071
#	194684
#
# Disc length: 2823 seconds
#
# Revision: 0
# Processed by: cddbd v1.5.2PL0 Copyright (c) Steve Scherf et al.
# Submitted via: EasyCDDAExtractor 12.0.1.1
#
DISCID=9b0b050c
DTITLE=Popeda - Täydelliset miehet
DYEAR=1900
DGENRE=
TTITLE0=Elän itselleni
TTITLE1=Onhan päivä vielä huomennakin
TTITLE2=Lentolupakirja
TTITLE3=Huhhahhei
TTITLE4=Aino
TTITLE5=Allright
TTITLE6=Rio de jaineiro
TTITLE7=Kuutamohullu
TTITLE8=Ikurilainen uimapatjan tervauslaulu
TTITLE9=Juntti
TTITLE10=JK-N blues
TTITLE11=Kai
EXTD=
EXTT0=
EXTT1=
EXTT2=
EXTT3=
EXTT4=
EXTT5=
EXTT6=
EXTT7=
EXTT8=
EXTT9=
EXTT10=
EXTT11=
PLAYORDER=
